<svg width="288" height="195" viewBox="0 0 288 195" fill="none" xmlns="http://www.w3.org/2000/svg">
<path fill-rule="evenodd" clip-rule="evenodd" d="M211.184 0H130.236L109.915 75H151.153L161.457 36.971H199.131C216.949 36.971 229.638 42.4379 237.197 53.3717C244.976 64.1201 246.355 78.7603 241.334 97.2921C236.313 115.824 226.976 130.557 213.322 141.491C199.888 152.239 184.262 157.613 166.443 157.613H128.769L145.192 97H103.955L77.5147 194.584H158.463C177.809 194.584 195.943 190.6 212.866 182.631C230.009 174.477 244.637 163.08 256.75 148.44C269.032 133.8 277.809 116.751 283.081 97.2921C288.353 77.8337 288.815 60.7844 284.466 46.1442C280.287 31.5041 271.81 20.1997 259.035 12.231C246.481 4.077 230.53 0 211.184 0Z" fill="white"/>
<rect width="58" height="40" transform="matrix(1 0 -0.261515 0.965199 63.5864 97)" fill="white"/>
<rect width="25.2644" height="40" transform="matrix(1 0 -0.261515 0.965199 173.586 77)" fill="white"/>
<rect width="41.6924" height="40" transform="matrix(1 0 -0.261515 0.965199 49.5864 38)" fill="white"/>
<rect width="30.2369" height="29.0096" transform="matrix(1 0 -0.261515 0.965199 7.58645 97)" fill="white"/>
<circle r="20" transform="matrix(1 0 -0.261515 0.965199 194.356 96.304)" fill="white"/>
</svg>
