<svg width="294" height="272" viewBox="0 0 294 272" fill="none" xmlns="http://www.w3.org/2000/svg">
<path fill-rule="evenodd" clip-rule="evenodd" d="M214.184 0H133.236L112.915 75H154.153L164.457 36.971H202.131C219.949 36.971 232.638 42.4379 240.197 53.3717C247.976 64.1201 249.355 78.7603 244.334 97.2921C239.313 115.824 229.976 130.557 216.322 141.491C202.888 152.239 187.262 157.613 169.443 157.613H131.769L148.192 97H106.955L80.5147 194.584H161.463C180.809 194.584 198.943 190.6 215.866 182.631C233.009 174.477 247.637 163.08 259.75 148.44C272.032 133.8 280.809 116.751 286.081 97.2921C291.353 77.8337 291.815 60.7844 287.466 46.1442C283.287 31.5041 274.81 20.1997 262.035 12.231C249.481 4.077 233.53 0 214.184 0Z" fill="#E63F36"/>
<rect width="58" height="40" transform="matrix(1 0 -0.261515 0.965199 66.5864 97)" fill="#E63F36"/>
<rect width="25.2644" height="40" transform="matrix(1 0 -0.261515 0.965199 176.586 77)" fill="#E63F36"/>
<rect width="41.6924" height="40" transform="matrix(1 0 -0.261515 0.965199 52.5864 38)" fill="#E63F36"/>
<rect width="30.2369" height="29.0096" transform="matrix(1 0 -0.261515 0.965199 10.5864 97)" fill="#E63F36"/>
<circle r="20" transform="matrix(1 0 -0.261515 0.965199 197.356 96.304)" fill="#E63F36"/>
<path d="M32.24 220.416V259H24.492V255.776C22.4813 258.203 19.5693 259.416 15.756 259.416C13.1213 259.416 10.7293 258.827 8.58 257.648C6.46533 256.469 4.80133 254.788 3.588 252.604C2.37467 250.42 1.768 247.889 1.768 245.012C1.768 242.135 2.37467 239.604 3.588 237.42C4.80133 235.236 6.46533 233.555 8.58 232.376C10.7293 231.197 13.1213 230.608 15.756 230.608C19.3267 230.608 22.1173 231.735 24.128 233.988V220.416H32.24ZM17.16 252.76C19.2053 252.76 20.904 252.067 22.256 250.68C23.608 249.259 24.284 247.369 24.284 245.012C24.284 242.655 23.608 240.783 22.256 239.396C20.904 237.975 19.2053 237.264 17.16 237.264C15.08 237.264 13.364 237.975 12.012 239.396C10.66 240.783 9.984 242.655 9.984 245.012C9.984 247.369 10.66 249.259 12.012 250.68C13.364 252.067 15.08 252.76 17.16 252.76ZM67.9319 231.024V259H60.2359V255.672C59.1612 256.885 57.8786 257.821 56.3879 258.48C54.8972 259.104 53.2852 259.416 51.5519 259.416C47.8772 259.416 44.9652 258.359 42.8159 256.244C40.6666 254.129 39.5919 250.992 39.5919 246.832V231.024H47.7039V245.636C47.7039 250.143 49.5932 252.396 53.3719 252.396C55.3132 252.396 56.8732 251.772 58.0519 250.524C59.2306 249.241 59.8199 247.352 59.8199 244.856V231.024H67.9319ZM93.4911 257.648C92.6938 258.237 91.7058 258.688 90.5271 259C89.3831 259.277 88.1698 259.416 86.8871 259.416C83.5591 259.416 80.9765 258.567 79.1391 256.868C77.3365 255.169 76.4351 252.673 76.4351 249.38V237.888H72.1191V231.648H76.4351V224.836H84.5471V231.648H91.5151V237.888H84.5471V249.276C84.5471 250.455 84.8418 251.373 85.4311 252.032C86.0551 252.656 86.9218 252.968 88.0311 252.968C89.3138 252.968 90.4058 252.621 91.3071 251.928L93.4911 257.648ZM109.329 230.608C113.662 230.608 116.99 231.648 119.313 233.728C121.635 235.773 122.797 238.876 122.797 243.036V259H115.205V255.516C113.679 258.116 110.837 259.416 106.677 259.416C104.527 259.416 102.655 259.052 101.061 258.324C99.5008 257.596 98.3048 256.591 97.4728 255.308C96.6408 254.025 96.2248 252.569 96.2248 250.94C96.2248 248.34 97.1954 246.295 99.1368 244.804C101.113 243.313 104.146 242.568 108.237 242.568H114.685C114.685 240.8 114.147 239.448 113.073 238.512C111.998 237.541 110.386 237.056 108.237 237.056C106.746 237.056 105.273 237.299 103.817 237.784C102.395 238.235 101.182 238.859 100.177 239.656L97.2648 233.988C98.7901 232.913 100.61 232.081 102.725 231.492C104.874 230.903 107.075 230.608 109.329 230.608ZM108.705 253.956C110.091 253.956 111.322 253.644 112.397 253.02C113.471 252.361 114.234 251.408 114.685 250.16V247.3H109.121C105.793 247.3 104.129 248.392 104.129 250.576C104.129 251.616 104.527 252.448 105.325 253.072C106.157 253.661 107.283 253.956 108.705 253.956ZM165.967 230.608C169.468 230.608 172.241 231.648 174.287 233.728C176.367 235.773 177.407 238.859 177.407 242.984V259H169.295V244.232C169.295 242.013 168.827 240.367 167.891 239.292C166.989 238.183 165.689 237.628 163.991 237.628C162.084 237.628 160.576 238.252 159.467 239.5C158.357 240.713 157.803 242.533 157.803 244.96V259H149.691V244.232C149.691 239.829 147.923 237.628 144.387 237.628C142.515 237.628 141.024 238.252 139.915 239.5C138.805 240.713 138.251 242.533 138.251 244.96V259H130.139V231.024H137.887V234.248C138.927 233.069 140.192 232.168 141.683 231.544C143.208 230.92 144.872 230.608 146.675 230.608C148.651 230.608 150.436 231.007 152.031 231.804C153.625 232.567 154.908 233.693 155.879 235.184C157.023 233.728 158.461 232.601 160.195 231.804C161.963 231.007 163.887 230.608 165.967 230.608ZM198.294 259.416C195.348 259.416 192.696 258.809 190.338 257.596C188.016 256.348 186.196 254.632 184.878 252.448C183.561 250.264 182.902 247.785 182.902 245.012C182.902 242.239 183.561 239.76 184.878 237.576C186.196 235.392 188.016 233.693 190.338 232.48C192.696 231.232 195.348 230.608 198.294 230.608C201.241 230.608 203.876 231.232 206.198 232.48C208.521 233.693 210.341 235.392 211.658 237.576C212.976 239.76 213.634 242.239 213.634 245.012C213.634 247.785 212.976 250.264 211.658 252.448C210.341 254.632 208.521 256.348 206.198 257.596C203.876 258.809 201.241 259.416 198.294 259.416ZM198.294 252.76C200.374 252.76 202.073 252.067 203.39 250.68C204.742 249.259 205.418 247.369 205.418 245.012C205.418 242.655 204.742 240.783 203.39 239.396C202.073 237.975 200.374 237.264 198.294 237.264C196.214 237.264 194.498 237.975 193.146 239.396C191.794 240.783 191.118 242.655 191.118 245.012C191.118 247.369 191.794 249.259 193.146 250.68C194.498 252.067 196.214 252.76 198.294 252.76ZM237.101 257.648C236.303 258.237 235.315 258.688 234.137 259C232.993 259.277 231.779 259.416 230.497 259.416C227.169 259.416 224.586 258.567 222.749 256.868C220.946 255.169 220.045 252.673 220.045 249.38V237.888H215.729V231.648H220.045V224.836H228.157V231.648H235.125V237.888H228.157V249.276C228.157 250.455 228.451 251.373 229.04 252.032C229.665 252.656 230.531 252.968 231.641 252.968C232.923 252.968 234.015 252.621 234.917 251.928L237.101 257.648ZM254.103 259.416C251.156 259.416 248.504 258.809 246.147 257.596C243.824 256.348 242.004 254.632 240.687 252.448C239.37 250.264 238.711 247.785 238.711 245.012C238.711 242.239 239.37 239.76 240.687 237.576C242.004 235.392 243.824 233.693 246.147 232.48C248.504 231.232 251.156 230.608 254.103 230.608C257.05 230.608 259.684 231.232 262.007 232.48C264.33 233.693 266.15 235.392 267.467 237.576C268.784 239.76 269.443 242.239 269.443 245.012C269.443 247.785 268.784 250.264 267.467 252.448C266.15 254.632 264.33 256.348 262.007 257.596C259.684 258.809 257.05 259.416 254.103 259.416ZM254.103 252.76C256.183 252.76 257.882 252.067 259.199 250.68C260.551 249.259 261.227 247.369 261.227 245.012C261.227 242.655 260.551 240.783 259.199 239.396C257.882 237.975 256.183 237.264 254.103 237.264C252.023 237.264 250.307 237.975 248.955 239.396C247.603 240.783 246.927 242.655 246.927 245.012C246.927 247.369 247.603 249.259 248.955 250.68C250.307 252.067 252.023 252.76 254.103 252.76ZM282.613 234.716C283.584 233.364 284.884 232.341 286.513 231.648C288.177 230.955 290.084 230.608 292.233 230.608V238.096C291.332 238.027 290.725 237.992 290.413 237.992C288.09 237.992 286.27 238.651 284.953 239.968C283.636 241.251 282.977 243.192 282.977 245.792V259H274.865V231.024H282.613V234.716Z" fill="black"/>
</svg>
