<svg width="600" height="400" viewBox="0 0 600 400" fill="none" xmlns="http://www.w3.org/2000/svg">
<rect width="600" height="400" fill="white"/>
<path d="M331.563 146H286.501L275.188 188.013H298.145L303.881 166.71H324.853C334.773 166.71 341.837 169.772 346.045 175.897C350.375 181.918 351.143 190.119 348.348 200.5C345.552 210.881 340.354 219.134 332.754 225.259C325.275 231.28 316.576 234.29 306.657 234.29H285.684L294.827 200.336H271.87L257.151 255H302.214C312.984 255 323.079 252.768 332.5 248.304C342.043 243.737 350.186 237.352 356.929 229.151C363.766 220.95 368.653 211.4 371.588 200.5C374.522 189.6 374.779 180.05 372.359 171.849C370.032 163.648 365.313 157.315 358.202 152.851C351.213 148.284 342.333 146 331.563 146Z" fill="#CCCCCC"/>
<path d="M249.398 200.336H281.686L275.862 221.963H243.574L249.398 200.336Z" fill="#CCCCCC"/>
<path d="M310.633 189.133H324.698L318.874 210.76H304.81L310.633 189.133Z" fill="#CCCCCC"/>
<path d="M241.604 167.286H264.814L258.99 188.913H235.781L241.604 167.286Z" fill="#CCCCCC"/>
<path d="M218.223 200.336H235.056L230.833 216.021H214L218.223 200.336Z" fill="#CCCCCC"/>
<path d="M333.329 199.946C331.721 205.919 325.433 210.76 319.284 210.76C313.135 210.76 309.454 205.919 311.062 199.946C312.67 193.974 318.958 189.133 325.107 189.133C331.256 189.133 334.937 193.974 333.329 199.946Z" fill="#CCCCCC"/>
<path d="M311.12 189.133H325.184L319.361 210.76H305.297L311.12 189.133Z" fill="#CCCCCC"/>
</svg>
